<mxfile host="app.diagrams.net" modified="2021-01-25T09:17:20.347Z" agent="5.0 (Macintosh; Intel Mac OS X 10_15_7) AppleWebKit/537.36 (KHTML, like Gecko) Chrome/84.0.4147.89 Safari/537.36" etag="QyIO8R1DTZ-7D0-xVdIO" version="14.2.7" type="github">
  <diagram id="Ix7Yq3aGaNqLpuno5gIA" name="Page-1">
    <mxGraphModel dx="713" dy="321" grid="1" gridSize="10" guides="1" tooltips="1" connect="1" arrows="1" fold="1" page="1" pageScale="1" pageWidth="827" pageHeight="1169" math="0" shadow="1">
      <root>
        <mxCell id="0" />
        <mxCell id="1" parent="0" />
        <mxCell id="1nlrHuKdZCNofmnAaVhq-2" value="" style="rounded=0;whiteSpace=wrap;html=1;fillColor=none;strokeColor=#990099;strokeWidth=5;" vertex="1" parent="1">
          <mxGeometry x="1310" y="280" width="1430" height="890" as="geometry" />
        </mxCell>
        <mxCell id="1nlrHuKdZCNofmnAaVhq-3" value="" style="rounded=0;whiteSpace=wrap;html=1;fillColor=none;strokeColor=#990099;strokeWidth=5;" vertex="1" parent="1">
          <mxGeometry x="260" y="280" width="980" height="890" as="geometry" />
        </mxCell>
        <mxCell id="1nlrHuKdZCNofmnAaVhq-4" value="" style="edgeStyle=orthogonalEdgeStyle;rounded=0;orthogonalLoop=1;jettySize=auto;html=1;" edge="1" parent="1" source="1nlrHuKdZCNofmnAaVhq-8" target="1nlrHuKdZCNofmnAaVhq-14">
          <mxGeometry relative="1" as="geometry" />
        </mxCell>
        <mxCell id="1nlrHuKdZCNofmnAaVhq-5" value="" style="edgeStyle=orthogonalEdgeStyle;rounded=0;orthogonalLoop=1;jettySize=auto;html=1;" edge="1" parent="1" source="1nlrHuKdZCNofmnAaVhq-8" target="1nlrHuKdZCNofmnAaVhq-10">
          <mxGeometry relative="1" as="geometry" />
        </mxCell>
        <mxCell id="1nlrHuKdZCNofmnAaVhq-6" value="" style="edgeStyle=orthogonalEdgeStyle;rounded=0;orthogonalLoop=1;jettySize=auto;html=1;entryX=0;entryY=0.5;entryDx=0;entryDy=0;" edge="1" parent="1" source="1nlrHuKdZCNofmnAaVhq-8" target="1nlrHuKdZCNofmnAaVhq-15">
          <mxGeometry relative="1" as="geometry">
            <mxPoint x="1070" y="500" as="targetPoint" />
          </mxGeometry>
        </mxCell>
        <mxCell id="1nlrHuKdZCNofmnAaVhq-7" style="edgeStyle=orthogonalEdgeStyle;rounded=0;orthogonalLoop=1;jettySize=auto;html=1;" edge="1" parent="1" source="1nlrHuKdZCNofmnAaVhq-8" target="1nlrHuKdZCNofmnAaVhq-18">
          <mxGeometry relative="1" as="geometry" />
        </mxCell>
        <mxCell id="1nlrHuKdZCNofmnAaVhq-8" value="&lt;span class=&quot;&quot;&gt;&lt;span style=&quot;font-size: 15px ; line-height: 1.74 ; letter-spacing: 0.008em ; outline-style: none ; overflow-wrap: break-word&quot;&gt;10.111.134.234（tasc）&lt;/span&gt;&lt;/span&gt;" style="rounded=0;whiteSpace=wrap;html=1;fillColor=#d80073;strokeColor=#A50040;fontColor=#ffffff;" vertex="1" parent="1">
          <mxGeometry x="850" y="470" width="180" height="60" as="geometry" />
        </mxCell>
        <mxCell id="1nlrHuKdZCNofmnAaVhq-9" style="edgeStyle=orthogonalEdgeStyle;rounded=0;orthogonalLoop=1;jettySize=auto;html=1;exitX=0.5;exitY=1;exitDx=0;exitDy=0;entryX=0;entryY=0.25;entryDx=0;entryDy=0;strokeWidth=5;" edge="1" parent="1" source="1nlrHuKdZCNofmnAaVhq-10" target="1nlrHuKdZCNofmnAaVhq-58">
          <mxGeometry relative="1" as="geometry" />
        </mxCell>
        <mxCell id="1nlrHuKdZCNofmnAaVhq-10" value="&lt;font color=&quot;#404040&quot;&gt;&lt;span style=&quot;font-size: 15px ; letter-spacing: 0.12px&quot;&gt;运行数据&lt;/span&gt;&lt;/font&gt;" style="rounded=0;whiteSpace=wrap;html=1;" vertex="1" parent="1">
          <mxGeometry x="670" y="470" width="120" height="60" as="geometry" />
        </mxCell>
        <mxCell id="1nlrHuKdZCNofmnAaVhq-11" style="edgeStyle=orthogonalEdgeStyle;rounded=0;orthogonalLoop=1;jettySize=auto;html=1;entryX=0;entryY=0.75;entryDx=0;entryDy=0;strokeWidth=5;" edge="1" parent="1" source="1nlrHuKdZCNofmnAaVhq-14" target="1nlrHuKdZCNofmnAaVhq-58">
          <mxGeometry relative="1" as="geometry">
            <Array as="points">
              <mxPoint x="640" y="380" />
              <mxPoint x="640" y="975" />
            </Array>
          </mxGeometry>
        </mxCell>
        <mxCell id="1nlrHuKdZCNofmnAaVhq-12" style="edgeStyle=orthogonalEdgeStyle;rounded=0;orthogonalLoop=1;jettySize=auto;html=1;entryX=0.25;entryY=0;entryDx=0;entryDy=0;strokeWidth=5;" edge="1" parent="1" source="1nlrHuKdZCNofmnAaVhq-14" target="1nlrHuKdZCNofmnAaVhq-76">
          <mxGeometry relative="1" as="geometry">
            <Array as="points">
              <mxPoint x="424" y="340" />
            </Array>
          </mxGeometry>
        </mxCell>
        <mxCell id="1nlrHuKdZCNofmnAaVhq-13" style="edgeStyle=orthogonalEdgeStyle;rounded=0;orthogonalLoop=1;jettySize=auto;html=1;entryX=0.75;entryY=0;entryDx=0;entryDy=0;strokeWidth=5;" edge="1" parent="1" source="1nlrHuKdZCNofmnAaVhq-14" target="1nlrHuKdZCNofmnAaVhq-76">
          <mxGeometry relative="1" as="geometry" />
        </mxCell>
        <mxCell id="1nlrHuKdZCNofmnAaVhq-14" value="模型数据" style="rounded=0;whiteSpace=wrap;html=1;" vertex="1" parent="1">
          <mxGeometry x="880" y="330" width="120" height="60" as="geometry" />
        </mxCell>
        <mxCell id="1nlrHuKdZCNofmnAaVhq-15" value="安全校核案例数据" style="rounded=0;whiteSpace=wrap;html=1;" vertex="1" parent="1">
          <mxGeometry x="1090" y="470" width="120" height="60" as="geometry" />
        </mxCell>
        <mxCell id="1nlrHuKdZCNofmnAaVhq-16" value="" style="edgeStyle=orthogonalEdgeStyle;rounded=0;orthogonalLoop=1;jettySize=auto;html=1;" edge="1" parent="1" source="1nlrHuKdZCNofmnAaVhq-18" target="1nlrHuKdZCNofmnAaVhq-22">
          <mxGeometry relative="1" as="geometry" />
        </mxCell>
        <mxCell id="1nlrHuKdZCNofmnAaVhq-17" value="" style="edgeStyle=orthogonalEdgeStyle;rounded=0;orthogonalLoop=1;jettySize=auto;html=1;" edge="1" parent="1" source="1nlrHuKdZCNofmnAaVhq-18" target="1nlrHuKdZCNofmnAaVhq-20">
          <mxGeometry relative="1" as="geometry" />
        </mxCell>
        <mxCell id="1nlrHuKdZCNofmnAaVhq-18" value="安全校核结果" style="rounded=0;whiteSpace=wrap;html=1;" vertex="1" parent="1">
          <mxGeometry x="880" y="615" width="120" height="60" as="geometry" />
        </mxCell>
        <mxCell id="1nlrHuKdZCNofmnAaVhq-19" value="" style="edgeStyle=orthogonalEdgeStyle;rounded=0;orthogonalLoop=1;jettySize=auto;html=1;" edge="1" parent="1" source="1nlrHuKdZCNofmnAaVhq-20" target="1nlrHuKdZCNofmnAaVhq-21">
          <mxGeometry relative="1" as="geometry" />
        </mxCell>
        <mxCell id="1nlrHuKdZCNofmnAaVhq-20" value="水位结果" style="rounded=0;whiteSpace=wrap;html=1;" vertex="1" parent="1">
          <mxGeometry x="1090" y="615" width="120" height="60" as="geometry" />
        </mxCell>
        <mxCell id="1nlrHuKdZCNofmnAaVhq-21" value="放空、弃水、低于死水位、过流未通过、生态流量未通过" style="rounded=0;whiteSpace=wrap;html=1;" vertex="1" parent="1">
          <mxGeometry x="1090" y="760" width="120" height="60" as="geometry" />
        </mxCell>
        <mxCell id="1nlrHuKdZCNofmnAaVhq-22" value="潮流结果&lt;br&gt;（基态、N-1）" style="rounded=0;whiteSpace=wrap;html=1;" vertex="1" parent="1">
          <mxGeometry x="880" y="760" width="120" height="60" as="geometry" />
        </mxCell>
        <mxCell id="1nlrHuKdZCNofmnAaVhq-23" value="" style="shape=link;html=1;" edge="1" parent="1">
          <mxGeometry width="50" height="50" relative="1" as="geometry">
            <mxPoint x="1274" y="1170" as="sourcePoint" />
            <mxPoint x="1274" y="280" as="targetPoint" />
          </mxGeometry>
        </mxCell>
        <mxCell id="1nlrHuKdZCNofmnAaVhq-24" style="edgeStyle=orthogonalEdgeStyle;rounded=0;orthogonalLoop=1;jettySize=auto;html=1;entryX=0.5;entryY=1;entryDx=0;entryDy=0;" edge="1" parent="1" source="1nlrHuKdZCNofmnAaVhq-30" target="1nlrHuKdZCNofmnAaVhq-33">
          <mxGeometry relative="1" as="geometry" />
        </mxCell>
        <mxCell id="1nlrHuKdZCNofmnAaVhq-25" style="edgeStyle=orthogonalEdgeStyle;rounded=0;orthogonalLoop=1;jettySize=auto;html=1;entryX=1;entryY=0.5;entryDx=0;entryDy=0;" edge="1" parent="1" source="1nlrHuKdZCNofmnAaVhq-30" target="1nlrHuKdZCNofmnAaVhq-36">
          <mxGeometry relative="1" as="geometry" />
        </mxCell>
        <mxCell id="1nlrHuKdZCNofmnAaVhq-26" style="edgeStyle=orthogonalEdgeStyle;rounded=0;orthogonalLoop=1;jettySize=auto;html=1;" edge="1" parent="1" source="1nlrHuKdZCNofmnAaVhq-30" target="1nlrHuKdZCNofmnAaVhq-39">
          <mxGeometry relative="1" as="geometry" />
        </mxCell>
        <mxCell id="1nlrHuKdZCNofmnAaVhq-27" style="edgeStyle=orthogonalEdgeStyle;rounded=0;orthogonalLoop=1;jettySize=auto;html=1;exitX=0.25;exitY=1;exitDx=0;exitDy=0;entryX=0.5;entryY=0;entryDx=0;entryDy=0;" edge="1" parent="1" source="1nlrHuKdZCNofmnAaVhq-30" target="1nlrHuKdZCNofmnAaVhq-42">
          <mxGeometry relative="1" as="geometry">
            <mxPoint x="1655" y="610" as="targetPoint" />
          </mxGeometry>
        </mxCell>
        <mxCell id="1nlrHuKdZCNofmnAaVhq-28" style="edgeStyle=orthogonalEdgeStyle;rounded=0;orthogonalLoop=1;jettySize=auto;html=1;exitX=0.5;exitY=1;exitDx=0;exitDy=0;" edge="1" parent="1" source="1nlrHuKdZCNofmnAaVhq-30" target="1nlrHuKdZCNofmnAaVhq-43">
          <mxGeometry relative="1" as="geometry">
            <mxPoint x="1745" y="610" as="targetPoint" />
            <Array as="points">
              <mxPoint x="1680" y="610" />
              <mxPoint x="1775" y="610" />
            </Array>
          </mxGeometry>
        </mxCell>
        <mxCell id="1nlrHuKdZCNofmnAaVhq-29" style="edgeStyle=orthogonalEdgeStyle;rounded=0;orthogonalLoop=1;jettySize=auto;html=1;exitX=0.75;exitY=1;exitDx=0;exitDy=0;strokeWidth=1;" edge="1" parent="1" source="1nlrHuKdZCNofmnAaVhq-30" target="1nlrHuKdZCNofmnAaVhq-63">
          <mxGeometry relative="1" as="geometry">
            <mxPoint x="1925" y="645" as="targetPoint" />
          </mxGeometry>
        </mxCell>
        <mxCell id="1nlrHuKdZCNofmnAaVhq-30" value="&lt;span class=&quot;&quot;&gt;&lt;span style=&quot;font-size: 15px ; line-height: 1.74 ; letter-spacing: 0.008em ; outline-style: none ; overflow-wrap: break-word&quot;&gt;10.111.134.234（tcbi）&lt;/span&gt;&lt;/span&gt;" style="rounded=0;whiteSpace=wrap;html=1;fillColor=#d80073;strokeColor=#A50040;fontColor=#ffffff;" vertex="1" parent="1">
          <mxGeometry x="1580" y="490" width="230" height="60" as="geometry" />
        </mxCell>
        <mxCell id="1nlrHuKdZCNofmnAaVhq-31" style="edgeStyle=orthogonalEdgeStyle;rounded=0;orthogonalLoop=1;jettySize=auto;html=1;entryX=0;entryY=0.75;entryDx=0;entryDy=0;strokeWidth=5;strokeColor=#66CC00;" edge="1" parent="1" source="1nlrHuKdZCNofmnAaVhq-33" target="1nlrHuKdZCNofmnAaVhq-46">
          <mxGeometry relative="1" as="geometry">
            <mxPoint x="1359" y="960" as="targetPoint" />
            <Array as="points">
              <mxPoint x="1330" y="390" />
              <mxPoint x="1330" y="835" />
            </Array>
          </mxGeometry>
        </mxCell>
        <mxCell id="1nlrHuKdZCNofmnAaVhq-32" style="edgeStyle=orthogonalEdgeStyle;rounded=0;orthogonalLoop=1;jettySize=auto;html=1;entryX=0.25;entryY=0;entryDx=0;entryDy=0;strokeWidth=5;" edge="1" parent="1" source="1nlrHuKdZCNofmnAaVhq-33" target="1nlrHuKdZCNofmnAaVhq-67">
          <mxGeometry relative="1" as="geometry" />
        </mxCell>
        <mxCell id="1nlrHuKdZCNofmnAaVhq-33" value="模型数据" style="rounded=0;whiteSpace=wrap;html=1;" vertex="1" parent="1">
          <mxGeometry x="1635" y="360" width="120" height="60" as="geometry" />
        </mxCell>
        <mxCell id="1nlrHuKdZCNofmnAaVhq-34" style="edgeStyle=orthogonalEdgeStyle;rounded=0;orthogonalLoop=1;jettySize=auto;html=1;exitX=0.5;exitY=1;exitDx=0;exitDy=0;entryX=0;entryY=0.25;entryDx=0;entryDy=0;strokeWidth=5;fillColor=#cdeb8b;strokeColor=#66CC00;" edge="1" parent="1" source="1nlrHuKdZCNofmnAaVhq-36" target="1nlrHuKdZCNofmnAaVhq-46">
          <mxGeometry relative="1" as="geometry" />
        </mxCell>
        <mxCell id="1nlrHuKdZCNofmnAaVhq-35" style="edgeStyle=orthogonalEdgeStyle;rounded=0;orthogonalLoop=1;jettySize=auto;html=1;entryX=0.75;entryY=0;entryDx=0;entryDy=0;strokeWidth=5;" edge="1" parent="1" source="1nlrHuKdZCNofmnAaVhq-36" target="1nlrHuKdZCNofmnAaVhq-67">
          <mxGeometry relative="1" as="geometry">
            <Array as="points">
              <mxPoint x="1440" y="330" />
              <mxPoint x="2413" y="330" />
            </Array>
          </mxGeometry>
        </mxCell>
        <mxCell id="1nlrHuKdZCNofmnAaVhq-36" value="&lt;font color=&quot;#404040&quot;&gt;&lt;span style=&quot;font-size: 15px ; letter-spacing: 0.12px&quot;&gt;运行数据&lt;/span&gt;&lt;/font&gt;" style="rounded=0;whiteSpace=wrap;html=1;" vertex="1" parent="1">
          <mxGeometry x="1380" y="490" width="120" height="60" as="geometry" />
        </mxCell>
        <mxCell id="1nlrHuKdZCNofmnAaVhq-37" value="tasc 安全校核；tcbi 边界系统；tmos 现货模拟" style="text;html=1;resizable=0;points=[];autosize=1;align=left;verticalAlign=top;spacingTop=-4;fillColor=#aa00ff;strokeColor=#7700CC;fontColor=#ffffff;" vertex="1" parent="1">
          <mxGeometry x="1550" y="230" width="260" height="20" as="geometry" />
        </mxCell>
        <mxCell id="1nlrHuKdZCNofmnAaVhq-38" style="edgeStyle=orthogonalEdgeStyle;rounded=0;orthogonalLoop=1;jettySize=auto;html=1;entryX=0;entryY=0.5;entryDx=0;entryDy=0;strokeWidth=5;strokeColor=#66CC00;" edge="1" parent="1" source="1nlrHuKdZCNofmnAaVhq-39" target="1nlrHuKdZCNofmnAaVhq-67">
          <mxGeometry relative="1" as="geometry" />
        </mxCell>
        <mxCell id="1nlrHuKdZCNofmnAaVhq-39" value="边界数据预校验数据" style="rounded=0;whiteSpace=wrap;html=1;" vertex="1" parent="1">
          <mxGeometry x="1867" y="490" width="134" height="60" as="geometry" />
        </mxCell>
        <mxCell id="1nlrHuKdZCNofmnAaVhq-40" value="&lt;span style=&quot;font-size: 15px ; letter-spacing: 0.12px&quot;&gt;原10.111.134.234（tasc）； 改名&lt;/span&gt;" style="whiteSpace=wrap;html=1;rounded=1;arcSize=50;align=center;verticalAlign=middle;container=1;recursiveResize=0;strokeWidth=1;autosize=1;spacing=4;treeFolding=1;treeMoving=1;fillColor=#d80073;strokeColor=#A50040;fontColor=#ffffff;" vertex="1" parent="1">
          <mxGeometry x="1863.5" y="430" width="270" height="30" as="geometry" />
        </mxCell>
        <mxCell id="1nlrHuKdZCNofmnAaVhq-41" value="" style="edgeStyle=entityRelationEdgeStyle;startArrow=none;endArrow=none;segment=10;curved=1;exitX=0.75;exitY=0;exitDx=0;exitDy=0;" edge="1" parent="1" source="1nlrHuKdZCNofmnAaVhq-30" target="1nlrHuKdZCNofmnAaVhq-40">
          <mxGeometry relative="1" as="geometry">
            <mxPoint x="1790" y="460" as="sourcePoint" />
          </mxGeometry>
        </mxCell>
        <mxCell id="1nlrHuKdZCNofmnAaVhq-42" value="现货出清结果分析" style="rounded=0;whiteSpace=wrap;html=1;" vertex="1" parent="1">
          <mxGeometry x="1550" y="645" width="120" height="60" as="geometry" />
        </mxCell>
        <mxCell id="1nlrHuKdZCNofmnAaVhq-43" value="模拟出清结果分析" style="rounded=0;whiteSpace=wrap;html=1;fillColor=#cdeb8b;strokeColor=#36393d;" vertex="1" parent="1">
          <mxGeometry x="1713.5" y="645" width="123" height="60" as="geometry" />
        </mxCell>
        <mxCell id="1nlrHuKdZCNofmnAaVhq-44" value="" style="edgeStyle=orthogonalEdgeStyle;rounded=0;orthogonalLoop=1;jettySize=auto;html=1;entryX=0;entryY=0.5;entryDx=0;entryDy=0;" edge="1" parent="1" source="1nlrHuKdZCNofmnAaVhq-46" target="1nlrHuKdZCNofmnAaVhq-47">
          <mxGeometry relative="1" as="geometry">
            <mxPoint x="1935" y="820" as="targetPoint" />
          </mxGeometry>
        </mxCell>
        <mxCell id="1nlrHuKdZCNofmnAaVhq-45" style="edgeStyle=orthogonalEdgeStyle;rounded=0;orthogonalLoop=1;jettySize=auto;html=1;entryX=0.5;entryY=0;entryDx=0;entryDy=0;" edge="1" parent="1" source="1nlrHuKdZCNofmnAaVhq-46" target="1nlrHuKdZCNofmnAaVhq-50">
          <mxGeometry relative="1" as="geometry" />
        </mxCell>
        <mxCell id="1nlrHuKdZCNofmnAaVhq-46" value="&lt;span class=&quot;&quot;&gt;&lt;span style=&quot;font-size: 15px ; line-height: 1.74 ; letter-spacing: 0.008em ; outline-style: none ; overflow-wrap: break-word&quot;&gt;10.111.134.234（tasc copy）&lt;/span&gt;&lt;/span&gt;" style="rounded=0;whiteSpace=wrap;html=1;fillColor=#d80073;strokeColor=#A50040;fontColor=#ffffff;" vertex="1" parent="1">
          <mxGeometry x="1600" y="790" width="230" height="60" as="geometry" />
        </mxCell>
        <mxCell id="1nlrHuKdZCNofmnAaVhq-47" value="安全校核数据" style="rounded=0;whiteSpace=wrap;html=1;" vertex="1" parent="1">
          <mxGeometry x="1865" y="790" width="120" height="60" as="geometry" />
        </mxCell>
        <mxCell id="1nlrHuKdZCNofmnAaVhq-48" value="" style="edgeStyle=orthogonalEdgeStyle;rounded=0;orthogonalLoop=1;jettySize=auto;html=1;" edge="1" parent="1" source="1nlrHuKdZCNofmnAaVhq-50" target="1nlrHuKdZCNofmnAaVhq-54">
          <mxGeometry relative="1" as="geometry" />
        </mxCell>
        <mxCell id="1nlrHuKdZCNofmnAaVhq-49" value="" style="edgeStyle=orthogonalEdgeStyle;rounded=0;orthogonalLoop=1;jettySize=auto;html=1;" edge="1" parent="1" source="1nlrHuKdZCNofmnAaVhq-50" target="1nlrHuKdZCNofmnAaVhq-52">
          <mxGeometry relative="1" as="geometry" />
        </mxCell>
        <mxCell id="1nlrHuKdZCNofmnAaVhq-50" value="安全校核结果" style="rounded=0;whiteSpace=wrap;html=1;" vertex="1" parent="1">
          <mxGeometry x="1655" y="930" width="120" height="60" as="geometry" />
        </mxCell>
        <mxCell id="1nlrHuKdZCNofmnAaVhq-51" value="" style="edgeStyle=orthogonalEdgeStyle;rounded=0;orthogonalLoop=1;jettySize=auto;html=1;" edge="1" parent="1" source="1nlrHuKdZCNofmnAaVhq-52" target="1nlrHuKdZCNofmnAaVhq-53">
          <mxGeometry relative="1" as="geometry" />
        </mxCell>
        <mxCell id="1nlrHuKdZCNofmnAaVhq-52" value="水位结果" style="rounded=0;whiteSpace=wrap;html=1;" vertex="1" parent="1">
          <mxGeometry x="1865" y="930" width="120" height="60" as="geometry" />
        </mxCell>
        <mxCell id="1nlrHuKdZCNofmnAaVhq-53" value="放空、弃水、低于死水位、过流未通过、生态流量未通过" style="rounded=0;whiteSpace=wrap;html=1;" vertex="1" parent="1">
          <mxGeometry x="1865" y="1075" width="120" height="60" as="geometry" />
        </mxCell>
        <mxCell id="1nlrHuKdZCNofmnAaVhq-54" value="潮流结果&lt;br&gt;（基态、N-1）" style="rounded=0;whiteSpace=wrap;html=1;" vertex="1" parent="1">
          <mxGeometry x="1655" y="1075" width="120" height="60" as="geometry" />
        </mxCell>
        <mxCell id="1nlrHuKdZCNofmnAaVhq-55" style="edgeStyle=orthogonalEdgeStyle;rounded=0;orthogonalLoop=1;jettySize=auto;html=1;entryX=0;entryY=0.5;entryDx=0;entryDy=0;" edge="1" parent="1" source="1nlrHuKdZCNofmnAaVhq-58" target="1nlrHuKdZCNofmnAaVhq-59">
          <mxGeometry relative="1" as="geometry" />
        </mxCell>
        <mxCell id="1nlrHuKdZCNofmnAaVhq-56" style="edgeStyle=orthogonalEdgeStyle;rounded=0;orthogonalLoop=1;jettySize=auto;html=1;entryX=0.5;entryY=0;entryDx=0;entryDy=0;" edge="1" parent="1" source="1nlrHuKdZCNofmnAaVhq-58" target="1nlrHuKdZCNofmnAaVhq-60">
          <mxGeometry relative="1" as="geometry" />
        </mxCell>
        <mxCell id="1nlrHuKdZCNofmnAaVhq-57" style="edgeStyle=orthogonalEdgeStyle;rounded=0;orthogonalLoop=1;jettySize=auto;html=1;exitX=0.75;exitY=1;exitDx=0;exitDy=0;entryX=0.5;entryY=0;entryDx=0;entryDy=0;" edge="1" parent="1" source="1nlrHuKdZCNofmnAaVhq-58" target="1nlrHuKdZCNofmnAaVhq-61">
          <mxGeometry relative="1" as="geometry" />
        </mxCell>
        <mxCell id="1nlrHuKdZCNofmnAaVhq-58" value="&lt;span class=&quot;&quot;&gt;&lt;span style=&quot;font-size: 15px ; line-height: 1.74 ; letter-spacing: 0.008em ; outline-style: none ; overflow-wrap: break-word&quot;&gt;10.111.134.234（tcbi）&lt;/span&gt;&lt;/span&gt;" style="rounded=0;whiteSpace=wrap;html=1;fillColor=#d80073;strokeColor=#A50040;fontColor=#ffffff;" vertex="1" parent="1">
          <mxGeometry x="850" y="930" width="180" height="60" as="geometry" />
        </mxCell>
        <mxCell id="1nlrHuKdZCNofmnAaVhq-59" value="边界数据预校验数据" style="rounded=0;whiteSpace=wrap;html=1;" vertex="1" parent="1">
          <mxGeometry x="1087" y="930" width="120" height="60" as="geometry" />
        </mxCell>
        <mxCell id="1nlrHuKdZCNofmnAaVhq-60" value="现货出清结果" style="rounded=0;whiteSpace=wrap;html=1;" vertex="1" parent="1">
          <mxGeometry x="880" y="1090" width="120" height="60" as="geometry" />
        </mxCell>
        <mxCell id="1nlrHuKdZCNofmnAaVhq-61" value="模拟出清结果" style="rounded=0;whiteSpace=wrap;html=1;" vertex="1" parent="1">
          <mxGeometry x="1087" y="1090" width="123" height="60" as="geometry" />
        </mxCell>
        <mxCell id="1nlrHuKdZCNofmnAaVhq-62" value="" style="edgeStyle=orthogonalEdgeStyle;rounded=0;orthogonalLoop=1;jettySize=auto;html=1;" edge="1" parent="1" source="1nlrHuKdZCNofmnAaVhq-63" target="1nlrHuKdZCNofmnAaVhq-64">
          <mxGeometry relative="1" as="geometry" />
        </mxCell>
        <mxCell id="1nlrHuKdZCNofmnAaVhq-63" value="水位结果" style="rounded=0;whiteSpace=wrap;html=1;fillColor=#cdeb8b;strokeColor=#36393d;" vertex="1" parent="1">
          <mxGeometry x="1880" y="645" width="120" height="60" as="geometry" />
        </mxCell>
        <mxCell id="1nlrHuKdZCNofmnAaVhq-64" value="放空、弃水、低于死水位、过流未通过、生态流量未通过" style="rounded=0;whiteSpace=wrap;html=1;fillColor=#cdeb8b;strokeColor=#36393d;" vertex="1" parent="1">
          <mxGeometry x="2043.5" y="645" width="120" height="60" as="geometry" />
        </mxCell>
        <mxCell id="1nlrHuKdZCNofmnAaVhq-65" style="edgeStyle=orthogonalEdgeStyle;rounded=0;orthogonalLoop=1;jettySize=auto;html=1;entryX=0;entryY=0.5;entryDx=0;entryDy=0;strokeWidth=1;" edge="1" parent="1" source="1nlrHuKdZCNofmnAaVhq-67" target="1nlrHuKdZCNofmnAaVhq-68">
          <mxGeometry relative="1" as="geometry" />
        </mxCell>
        <mxCell id="1nlrHuKdZCNofmnAaVhq-66" style="edgeStyle=orthogonalEdgeStyle;rounded=0;orthogonalLoop=1;jettySize=auto;html=1;strokeWidth=1;" edge="1" parent="1" source="1nlrHuKdZCNofmnAaVhq-67" target="1nlrHuKdZCNofmnAaVhq-72">
          <mxGeometry relative="1" as="geometry" />
        </mxCell>
        <mxCell id="1nlrHuKdZCNofmnAaVhq-67" value="&lt;span class=&quot;&quot;&gt;&lt;span style=&quot;font-size: 15px ; line-height: 1.74 ; letter-spacing: 0.008em ; outline-style: none ; overflow-wrap: break-word&quot;&gt;10.111.134.234（tmos）&lt;/span&gt;&lt;/span&gt;" style="rounded=0;whiteSpace=wrap;html=1;fillColor=#d80073;strokeColor=#A50040;fontColor=#ffffff;" vertex="1" parent="1">
          <mxGeometry x="2240" y="490" width="230" height="60" as="geometry" />
        </mxCell>
        <mxCell id="1nlrHuKdZCNofmnAaVhq-68" value="其他" style="rounded=0;whiteSpace=wrap;html=1;" vertex="1" parent="1">
          <mxGeometry x="2530" y="490" width="134" height="60" as="geometry" />
        </mxCell>
        <mxCell id="1nlrHuKdZCNofmnAaVhq-69" value="" style="edgeStyle=orthogonalEdgeStyle;rounded=0;orthogonalLoop=1;jettySize=auto;html=1;strokeWidth=1;" edge="1" parent="1" source="1nlrHuKdZCNofmnAaVhq-72" target="1nlrHuKdZCNofmnAaVhq-74">
          <mxGeometry relative="1" as="geometry" />
        </mxCell>
        <mxCell id="1nlrHuKdZCNofmnAaVhq-70" style="edgeStyle=orthogonalEdgeStyle;rounded=0;orthogonalLoop=1;jettySize=auto;html=1;strokeColor=#3399FF;strokeWidth=3;" edge="1" parent="1" source="1nlrHuKdZCNofmnAaVhq-72" target="1nlrHuKdZCNofmnAaVhq-91">
          <mxGeometry relative="1" as="geometry">
            <Array as="points">
              <mxPoint x="2480" y="640" />
              <mxPoint x="2480" y="860" />
              <mxPoint x="2129" y="860" />
            </Array>
          </mxGeometry>
        </mxCell>
        <mxCell id="1nlrHuKdZCNofmnAaVhq-71" value="&lt;font style=&quot;font-size: 20px&quot;&gt;详细描述&lt;/font&gt;" style="edgeLabel;html=1;align=center;verticalAlign=middle;resizable=0;points=[];" vertex="1" connectable="0" parent="1nlrHuKdZCNofmnAaVhq-70">
          <mxGeometry x="-0.1593" y="-1" relative="1" as="geometry">
            <mxPoint x="-144.67000000000002" as="offset" />
          </mxGeometry>
        </mxCell>
        <mxCell id="1nlrHuKdZCNofmnAaVhq-72" value="日前案例" style="rounded=0;whiteSpace=wrap;html=1;" vertex="1" parent="1">
          <mxGeometry x="2288" y="610" width="134" height="60" as="geometry" />
        </mxCell>
        <mxCell id="1nlrHuKdZCNofmnAaVhq-73" style="edgeStyle=orthogonalEdgeStyle;rounded=0;orthogonalLoop=1;jettySize=auto;html=1;entryX=0.5;entryY=1;entryDx=0;entryDy=0;strokeWidth=5;strokeColor=#66CC00;" edge="1" parent="1" source="1nlrHuKdZCNofmnAaVhq-74" target="1nlrHuKdZCNofmnAaVhq-43">
          <mxGeometry relative="1" as="geometry">
            <Array as="points">
              <mxPoint x="1775" y="730" />
            </Array>
          </mxGeometry>
        </mxCell>
        <mxCell id="1nlrHuKdZCNofmnAaVhq-74" value="出清结果" style="rounded=0;whiteSpace=wrap;html=1;" vertex="1" parent="1">
          <mxGeometry x="2288" y="695" width="134" height="60" as="geometry" />
        </mxCell>
        <mxCell id="1nlrHuKdZCNofmnAaVhq-75" style="edgeStyle=orthogonalEdgeStyle;rounded=0;orthogonalLoop=1;jettySize=auto;html=1;entryX=0.5;entryY=0;entryDx=0;entryDy=0;strokeWidth=1;" edge="1" parent="1" source="1nlrHuKdZCNofmnAaVhq-76" target="1nlrHuKdZCNofmnAaVhq-77">
          <mxGeometry relative="1" as="geometry" />
        </mxCell>
        <mxCell id="1nlrHuKdZCNofmnAaVhq-76" value="&lt;span class=&quot;&quot;&gt;&lt;span style=&quot;font-size: 15px ; line-height: 1.74 ; letter-spacing: 0.008em ; outline-style: none ; overflow-wrap: break-word&quot;&gt;10.111.134.234（tmos）&lt;/span&gt;&lt;/span&gt;" style="rounded=0;whiteSpace=wrap;html=1;fillColor=#d80073;strokeColor=#A50040;fontColor=#ffffff;" vertex="1" parent="1">
          <mxGeometry x="366" y="470" width="230" height="60" as="geometry" />
        </mxCell>
        <mxCell id="1nlrHuKdZCNofmnAaVhq-77" value="其他" style="rounded=0;whiteSpace=wrap;html=1;" vertex="1" parent="1">
          <mxGeometry x="414" y="570" width="134" height="60" as="geometry" />
        </mxCell>
        <mxCell id="1nlrHuKdZCNofmnAaVhq-78" value="" style="group" vertex="1" connectable="0" parent="1">
          <mxGeometry x="1865" y="230" width="136" height="20" as="geometry" />
        </mxCell>
        <mxCell id="1nlrHuKdZCNofmnAaVhq-79" value="" style="rounded=1;whiteSpace=wrap;html=1;fillColor=#d80073;strokeColor=#A50040;fontColor=#ffffff;" vertex="1" parent="1nlrHuKdZCNofmnAaVhq-78">
          <mxGeometry width="50" height="20" as="geometry" />
        </mxCell>
        <mxCell id="1nlrHuKdZCNofmnAaVhq-80" value="数据库服务器" style="text;html=1;strokeColor=none;fillColor=none;align=center;verticalAlign=middle;whiteSpace=wrap;rounded=0;" vertex="1" parent="1nlrHuKdZCNofmnAaVhq-78">
          <mxGeometry x="60" width="76" height="20" as="geometry" />
        </mxCell>
        <mxCell id="1nlrHuKdZCNofmnAaVhq-81" value="" style="group" vertex="1" connectable="0" parent="1">
          <mxGeometry x="2045" y="230" width="280" height="20" as="geometry" />
        </mxCell>
        <mxCell id="1nlrHuKdZCNofmnAaVhq-82" value="" style="rounded=1;whiteSpace=wrap;html=1;fillColor=#cdeb8b;strokeColor=#36393d;" vertex="1" parent="1nlrHuKdZCNofmnAaVhq-81">
          <mxGeometry width="60" height="20" as="geometry" />
        </mxCell>
        <mxCell id="1nlrHuKdZCNofmnAaVhq-83" value="" style="endArrow=classic;html=1;strokeColor=#66CC00;strokeWidth=5;" edge="1" parent="1nlrHuKdZCNofmnAaVhq-81">
          <mxGeometry width="50" height="50" relative="1" as="geometry">
            <mxPoint x="70" y="10" as="sourcePoint" />
            <mxPoint x="140" y="10" as="targetPoint" />
          </mxGeometry>
        </mxCell>
        <mxCell id="1nlrHuKdZCNofmnAaVhq-84" value="新增的模块和数据交互" style="text;html=1;strokeColor=none;fillColor=none;align=center;verticalAlign=middle;whiteSpace=wrap;rounded=0;" vertex="1" parent="1nlrHuKdZCNofmnAaVhq-81">
          <mxGeometry x="150" width="130" height="20" as="geometry" />
        </mxCell>
        <mxCell id="1nlrHuKdZCNofmnAaVhq-85" value="" style="group" vertex="1" connectable="0" parent="1">
          <mxGeometry x="2355" y="230" width="140" height="20" as="geometry" />
        </mxCell>
        <mxCell id="1nlrHuKdZCNofmnAaVhq-86" value="" style="endArrow=classic;html=1;strokeColor=#000033;strokeWidth=5;" edge="1" parent="1nlrHuKdZCNofmnAaVhq-85">
          <mxGeometry width="50" height="50" relative="1" as="geometry">
            <mxPoint y="9" as="sourcePoint" />
            <mxPoint x="60" y="9" as="targetPoint" />
          </mxGeometry>
        </mxCell>
        <mxCell id="1nlrHuKdZCNofmnAaVhq-87" value="数据交互" style="text;html=1;strokeColor=none;fillColor=none;align=center;verticalAlign=middle;whiteSpace=wrap;rounded=0;" vertex="1" parent="1nlrHuKdZCNofmnAaVhq-85">
          <mxGeometry x="80" width="60" height="20" as="geometry" />
        </mxCell>
        <mxCell id="1nlrHuKdZCNofmnAaVhq-88" value="&lt;font style=&quot;font-size: 50px&quot;&gt;old&lt;/font&gt;" style="text;html=1;strokeColor=none;fillColor=none;align=center;verticalAlign=middle;whiteSpace=wrap;rounded=0;" vertex="1" parent="1">
          <mxGeometry x="394" y="1000" width="40" height="20" as="geometry" />
        </mxCell>
        <mxCell id="1nlrHuKdZCNofmnAaVhq-89" value="&lt;font style=&quot;font-size: 50px&quot;&gt;new&lt;/font&gt;" style="text;html=1;strokeColor=none;fillColor=none;align=center;verticalAlign=middle;whiteSpace=wrap;rounded=0;" vertex="1" parent="1">
          <mxGeometry x="2585" y="685" width="40" height="20" as="geometry" />
        </mxCell>
        <mxCell id="1nlrHuKdZCNofmnAaVhq-90" style="edgeStyle=orthogonalEdgeStyle;rounded=0;orthogonalLoop=1;jettySize=auto;html=1;entryX=0;entryY=0.5;entryDx=0;entryDy=0;" edge="1" parent="1" source="1nlrHuKdZCNofmnAaVhq-91" target="1nlrHuKdZCNofmnAaVhq-96">
          <mxGeometry relative="1" as="geometry" />
        </mxCell>
        <mxCell id="1nlrHuKdZCNofmnAaVhq-91" value="开始" style="rounded=0;whiteSpace=wrap;html=1;" vertex="1" parent="1">
          <mxGeometry x="2093.5" y="940" width="70" height="40" as="geometry" />
        </mxCell>
        <mxCell id="1nlrHuKdZCNofmnAaVhq-92" value="" style="edgeStyle=orthogonalEdgeStyle;rounded=0;orthogonalLoop=1;jettySize=auto;html=1;" edge="1" parent="1" source="1nlrHuKdZCNofmnAaVhq-96" target="1nlrHuKdZCNofmnAaVhq-98">
          <mxGeometry relative="1" as="geometry" />
        </mxCell>
        <mxCell id="1nlrHuKdZCNofmnAaVhq-93" value="是" style="edgeLabel;html=1;align=center;verticalAlign=middle;resizable=0;points=[];" vertex="1" connectable="0" parent="1nlrHuKdZCNofmnAaVhq-92">
          <mxGeometry x="-0.1733" relative="1" as="geometry">
            <mxPoint as="offset" />
          </mxGeometry>
        </mxCell>
        <mxCell id="1nlrHuKdZCNofmnAaVhq-94" value="" style="edgeStyle=orthogonalEdgeStyle;rounded=0;orthogonalLoop=1;jettySize=auto;html=1;entryX=0;entryY=0.5;entryDx=0;entryDy=0;" edge="1" parent="1" source="1nlrHuKdZCNofmnAaVhq-96" target="1nlrHuKdZCNofmnAaVhq-100">
          <mxGeometry relative="1" as="geometry">
            <mxPoint x="2501" y="970" as="targetPoint" />
          </mxGeometry>
        </mxCell>
        <mxCell id="1nlrHuKdZCNofmnAaVhq-95" value="否" style="edgeLabel;html=1;align=center;verticalAlign=middle;resizable=0;points=[];" vertex="1" connectable="0" parent="1nlrHuKdZCNofmnAaVhq-94">
          <mxGeometry x="-0.1385" y="-1" relative="1" as="geometry">
            <mxPoint as="offset" />
          </mxGeometry>
        </mxCell>
        <mxCell id="1nlrHuKdZCNofmnAaVhq-96" value="是否发给现货预校验案例？" style="rhombus;whiteSpace=wrap;html=1;" vertex="1" parent="1">
          <mxGeometry x="2200" y="922.5" width="220" height="75" as="geometry" />
        </mxCell>
        <mxCell id="1nlrHuKdZCNofmnAaVhq-97" style="edgeStyle=orthogonalEdgeStyle;rounded=0;orthogonalLoop=1;jettySize=auto;html=1;strokeWidth=5;entryX=0.5;entryY=1;entryDx=0;entryDy=0;strokeColor=#00CC00;" edge="1" parent="1" source="1nlrHuKdZCNofmnAaVhq-98" target="1nlrHuKdZCNofmnAaVhq-74">
          <mxGeometry relative="1" as="geometry">
            <mxPoint x="2040" y="790" as="targetPoint" />
            <Array as="points">
              <mxPoint x="2050" y="1098" />
              <mxPoint x="2050" y="800" />
              <mxPoint x="2355" y="800" />
            </Array>
          </mxGeometry>
        </mxCell>
        <mxCell id="1nlrHuKdZCNofmnAaVhq-98" value="&lt;span&gt;出清结果&lt;/span&gt;" style="whiteSpace=wrap;html=1;" vertex="1" parent="1">
          <mxGeometry x="2253.5" y="1075" width="113" height="45" as="geometry" />
        </mxCell>
        <mxCell id="1nlrHuKdZCNofmnAaVhq-99" value="" style="edgeStyle=orthogonalEdgeStyle;rounded=0;orthogonalLoop=1;jettySize=auto;html=1;" edge="1" parent="1" source="1nlrHuKdZCNofmnAaVhq-100" target="1nlrHuKdZCNofmnAaVhq-101">
          <mxGeometry relative="1" as="geometry" />
        </mxCell>
        <mxCell id="1nlrHuKdZCNofmnAaVhq-100" value="创建案例" style="whiteSpace=wrap;html=1;" vertex="1" parent="1">
          <mxGeometry x="2512" y="937.5" width="113" height="45" as="geometry" />
        </mxCell>
        <mxCell id="1nlrHuKdZCNofmnAaVhq-101" value="出清结果" style="whiteSpace=wrap;html=1;" vertex="1" parent="1">
          <mxGeometry x="2512" y="1075" width="113" height="45" as="geometry" />
        </mxCell>
        <mxCell id="1nlrHuKdZCNofmnAaVhq-102" value="" style="rounded=0;whiteSpace=wrap;html=1;fillColor=none;strokeWidth=3;strokeColor=#3399FF;" vertex="1" parent="1">
          <mxGeometry x="2023.25" y="790" width="686.75" height="350" as="geometry" />
        </mxCell>
        <mxCell id="1nlrHuKdZCNofmnAaVhq-103" value="" style="group" vertex="1" connectable="0" parent="1">
          <mxGeometry x="2522" y="230" width="213" height="20" as="geometry" />
        </mxCell>
        <mxCell id="1nlrHuKdZCNofmnAaVhq-104" value="" style="rounded=0;whiteSpace=wrap;html=1;strokeColor=#3399FF;strokeWidth=3;fillColor=none;" vertex="1" parent="1nlrHuKdZCNofmnAaVhq-103">
          <mxGeometry width="63" height="20" as="geometry" />
        </mxCell>
        <mxCell id="1nlrHuKdZCNofmnAaVhq-105" value="项目描述" style="text;html=1;strokeColor=none;fillColor=none;align=center;verticalAlign=middle;whiteSpace=wrap;rounded=0;" vertex="1" parent="1nlrHuKdZCNofmnAaVhq-103">
          <mxGeometry x="153" width="60" height="20" as="geometry" />
        </mxCell>
        <mxCell id="1nlrHuKdZCNofmnAaVhq-106" value="" style="endArrow=classic;html=1;strokeWidth=5;strokeColor=#3399FF;" edge="1" parent="1nlrHuKdZCNofmnAaVhq-103">
          <mxGeometry width="50" height="50" relative="1" as="geometry">
            <mxPoint x="88" y="9.670000000000002" as="sourcePoint" />
            <mxPoint x="143" y="10" as="targetPoint" />
          </mxGeometry>
        </mxCell>
      </root>
    </mxGraphModel>
  </diagram>
</mxfile>
